<svg width="267" height="267" viewBox="0 0 267 267" fill="none" xmlns="http://www.w3.org/2000/svg">
<g clip-path="url(#clip0_1017_89)">
<path d="M133.5 267C207.23 267 267 207.23 267 133.5C267 59.77 207.23 0 133.5 0C59.77 0 0 59.77 0 133.5C0 207.23 59.77 267 133.5 267Z" fill="#B8BAC0"/>
<path d="M133.5 200.289C117.956 200.289 103.853 193.619 93.448 182.838C93.4402 189.299 93.2054 198.624 91.4922 205.428C92.6158 206.115 93.488 207.242 93.6582 208.645C95.8788 226.715 113.005 240.339 133.5 240.339C153.99 240.339 171.116 226.713 173.341 208.645C173.513 207.241 174.367 206.115 175.508 205.43C173.794 198.626 173.559 189.3 173.551 182.838C163.146 193.619 149.043 200.289 133.5 200.289Z" fill="white"/>
<path d="M172.682 183.659C162.364 193.937 148.629 200.289 133.5 200.289C117.956 200.289 103.853 193.619 93.448 182.838C93.4402 189.299 93.2054 198.624 91.4922 205.428C92.6158 206.115 93.488 207.242 93.6582 208.645C94.64 216.633 98.541 223.744 104.351 229.201C131.144 225.429 161.555 198.972 172.682 183.659Z" fill="#D7DBE0"/>
<path d="M173.9 88H98.25C85.9819 88 76 97.9819 76 110.25V136.95C76 171.303 101.952 199.25 133.85 199.25C165.748 199.25 191.7 171.303 191.7 136.95V105.8C191.7 95.9855 183.717 88 173.9 88Z" fill="white"/>
<path d="M164.651 40.089H106.801C98.4309 40.089 91.3954 45.8951 89.5003 53.6887C74.1817 55.6362 62.3008 68.7515 62.3008 84.589V106.839C62.3008 118.307 67.1691 129.006 75.6508 136.61V111.289C75.6508 99.0209 85.6327 89.039 97.9008 89.039H173.551C183.368 89.039 191.351 97.024 191.351 106.839V136.605C199.834 129.002 204.701 118.304 204.701 106.839V80.139C204.701 58.0564 186.736 40.089 164.651 40.089Z" fill="#5C546A"/>
<path d="M34.2832 222.803C58.7193 249.934 94.1129 267 133.5 267C172.888 267 208.282 249.934 232.718 222.803C228.457 217.042 222.448 212.362 214.722 210.199C214.544 210.148 214.365 210.11 214.183 210.083L178.661 204.753C178.444 204.721 177.979 204.703 177.757 204.703C175.511 204.703 173.616 206.379 173.342 208.61C171.117 226.677 153.99 240.303 133.5 240.303C113.006 240.303 95.8795 226.68 93.659 208.61C93.3809 206.313 91.3122 204.586 89.1305 204.705C88.8697 204.69 88.6132 204.712 88.3396 204.753L52.818 210.083C52.6356 210.109 52.4576 210.148 52.279 210.198C44.5527 212.362 38.5441 217.042 34.2832 222.803Z" fill="#5C546A"/>
</g>
<defs>
<clipPath id="clip0_1017_89">
<rect width="267" height="267" fill="white"/>
</clipPath>
</defs>
</svg>
